HIERARCHY
ROOT Hips
{
	OFFSET 0.000000 0.000000 0.000000
	CHANNELS 6 Xposition Yposition Zposition Zrotation Yrotation Xrotation 
	JOINT LHipJoint
	{
		OFFSET 0.000000 0.000000 0.000000
		CHANNELS 3 Zrotation Yrotation Xrotation
		JOINT LeftUpLeg
		{
			OFFSET 1.363060 -1.794630 0.839290
			CHANNELS 3 Zrotation Yrotation Xrotation
			JOINT LeftLeg
			{
				OFFSET 2.448110 -6.726130 0.000000
				CHANNELS 3 Zrotation Yrotation Xrotation
				JOINT LeftFoot
				{
					OFFSET 2.562200 -7.039590 0.000000
					CHANNELS 3 Zrotation Yrotation Xrotation
					JOINT LeftToeBase
					{
						OFFSET 0.157640 -0.433110 2.322550
						CHANNELS 3 Zrotation Yrotation Xrotation
						End Site
						{
							OFFSET 0.000000 0.000000 0.000000
						}
					}
				}
			}
		}
	}
	JOINT RHipJoint
	{
		OFFSET 0.000000 0.000000 0.000000
		CHANNELS 3 Zrotation Yrotation Xrotation
		JOINT RightUpLeg
		{
			OFFSET -1.305520 -1.794630 0.839290
			CHANNELS 3 Zrotation Yrotation Xrotation
			JOINT RightLeg
			{
				OFFSET -2.542530 -6.985550 0.000000
				CHANNELS 3 Zrotation Yrotation Xrotation
				JOINT RightFoot
				{
					OFFSET -2.568260 -7.056230 0.000000
					CHANNELS 3 Zrotation Yrotation Xrotation
					JOINT RightToeBase
					{
						OFFSET -0.164730 -0.452590 2.363150
						CHANNELS 3 Zrotation Yrotation Xrotation
						End Site
						{
							OFFSET 0.000000 0.000000 0.000000
						}
					}
				}
			}
		}
	}
	JOINT LowerBack
	{
		OFFSET 0.000000 0.000000 0.000000
		CHANNELS 3 Zrotation Yrotation Xrotation
		JOINT Spine
		{
			OFFSET 0.028270 2.035590 -0.193380
			CHANNELS 3 Zrotation Yrotation Xrotation
			JOINT Spine1
			{
				OFFSET 0.056720 2.048850 -0.042750
				CHANNELS 3 Zrotation Yrotation Xrotation
				JOINT Neck
				{
					OFFSET 0.000000 0.000000 0.000000
					CHANNELS 3 Zrotation Yrotation Xrotation
					JOINT Neck1
					{
						OFFSET -0.054170 1.746240 0.172020
						CHANNELS 3 Zrotation Yrotation Xrotation
						JOINT Head
						{
							OFFSET 0.104070 1.761360 -0.123970
							CHANNELS 3 Zrotation Yrotation Xrotation
							End Site
							{
								OFFSET 0.000000 0.000000 0.000000
							}
						}
					}
				}
				JOINT LeftShoulder
				{
					OFFSET 0.000000 0.000000 0.000000
					CHANNELS 3 Zrotation Yrotation Xrotation
					JOINT LeftArm
					{
						OFFSET 3.362410 1.200890 -0.311210
						CHANNELS 3 Zrotation Yrotation Xrotation
						JOINT LeftForeArm
						{
							OFFSET 4.983000 -0.000000 -0.000000
							CHANNELS 3 Zrotation Yrotation Xrotation
							JOINT LeftHand
							{
								OFFSET 3.483560 -0.000000 -0.000000
								CHANNELS 3 Zrotation Yrotation Xrotation
								JOINT LeftFingerBase
								{
									OFFSET 0.000000 0.000000 0.000000
									CHANNELS 3 Zrotation Yrotation Xrotation
									JOINT LeftHandIndex1
									{
										OFFSET 0.715260 -0.000000 -0.000000
										CHANNELS 3 Zrotation Yrotation Xrotation
										End Site
										{
											OFFSET 0.000000 0.000000 0.000000
										}
									}
								}
								JOINT LThumb
								{
									OFFSET 0.000000 0.000000 0.000000
									CHANNELS 3 Zrotation Yrotation Xrotation
									End Site
									{
										OFFSET 0.000000 0.000000 0.000000
									}
								}
							}
						}
					}
				}
				JOINT RightShoulder
				{
					OFFSET 0.000000 0.000000 0.000000
					CHANNELS 3 Zrotation Yrotation Xrotation
					JOINT RightArm
					{
						OFFSET -3.136600 1.374050 -0.404650
						CHANNELS 3 Zrotation Yrotation Xrotation
						JOINT RightForeArm
						{
							OFFSET -5.241900 -0.000000 -0.000000
							CHANNELS 3 Zrotation Yrotation Xrotation
							JOINT RightHand
							{
								OFFSET -3.444170 -0.000000 -0.000000
								CHANNELS 3 Zrotation Yrotation Xrotation
								JOINT RightFingerBase
								{
									OFFSET 0.000000 0.000000 0.000000
									CHANNELS 3 Zrotation Yrotation Xrotation
									JOINT RightHandIndex1
									{
										OFFSET -0.622530 -0.000000 -0.000000
										CHANNELS 3 Zrotation Yrotation Xrotation
										End Site
										{
											OFFSET 0.000000 0.000000 0.000000
										}
									}
								}
								JOINT RThumb
								{
									OFFSET 0.000000 0.000000 0.000000
									CHANNELS 3 Zrotation Yrotation Xrotation
									End Site
									{
										OFFSET 0.000000 0.000000 0.000000
									}
								}
							}
						}
					}
				}
			}
		}
	}
}
MOTION
Frames: 8
Frame Time: 0.008333
-1.537436 17.014533 -0.588308 171.928330 83.553183 179.682937 -9.456585 1.955129 2.482966 -18.947129 4.699176 -29.111783 -3.009446 -0.405254 10.430656 1.042947 6.683334 -0.235081 1.224500 0.000000 -5.447800 10.912805 -3.645539 -0.993332 -0.407559 -11.933361 -1.913122 0.002783 -2.664084 38.171160 0.189158 9.222326 15.222765 3.440300 0.000000 -77.997201 -5.641264 0.405810 -2.624876 -2.356581 0.627517 -3.642349 -8.082768 0.496447 0.129810 11.330112 -1.805369 -4.838483 -4.650777 -0.380556 0.668992 0.000000 0.000000 0.000000 -4.786768 11.441677 1.399366 -64.839142 8.300183 7.990943 -3.491387 -22.901895 -0.004019 2.157767 5.200593 0.102094 -0.067216 -0.050326 -0.000000 0.000000 0.000000 0.000000 0.000000 0.000000 0.000000 21.576453 2.988128 0.231488 70.214068 18.079639 7.409113 3.008900 26.793062 0.014750 3.476428 7.255789 0.223601 0.034107 -0.147281 0.000000 0.000000 0.000000 0.000000 0.000000 0.000000 0.000000 
-1.399207 17.034779 -0.644522 170.787195 83.393934 178.514141 -9.421449 2.005071 2.448613 -19.175498 4.680120 -28.253115 -3.036866 -0.443648 10.246840 1.048742 6.646417 -0.745696 1.142700 -0.000000 -5.303300 11.070637 -3.539575 -1.028274 -0.831097 -12.044400 -3.384269 -0.246287 -2.789249 41.052952 -0.003841 8.733553 17.009820 3.605200 0.000000 -76.203100 -5.711857 0.369892 -2.550347 -2.367691 0.598135 -3.629437 -8.078081 0.467365 0.125754 11.253191 -1.848464 -4.863230 -4.656790 -0.380504 0.660701 0.000000 0.000000 0.000000 -4.792593 11.280655 1.396864 -64.778576 7.627266 8.477427 -3.474996 -23.282841 -0.003998 2.115037 5.082290 0.097914 -0.067340 -0.047425 -0.000000 0.000000 0.000000 0.000000 0.000000 0.000000 0.000000 21.537369 2.882097 0.254040 70.310957 17.424971 6.879169 3.029624 26.336177 0.014547 3.527691 7.084333 0.221482 0.034634 -0.142937 0.000000 0.000000 0.000000 0.000000 0.000000 0.000000 0.000000 
-1.264387 17.053798 -0.700923 169.808221 83.250042 177.504083 -9.402062 2.050922 2.385093 -19.418428 4.831924 -27.410273 -3.075912 -0.483975 10.001542 1.031004 6.479170 -1.178725 1.052900 -0.000000 -5.357400 11.204725 -3.423040 -1.050318 -1.169341 -12.059576 -4.876126 -0.468533 -2.903503 43.892356 -0.207383 7.908392 18.456100 3.555400 0.000000 -74.213201 -5.754762 0.330899 -2.460223 -2.372544 0.563961 -3.613658 -8.073914 0.433583 0.119262 11.175099 -1.862656 -4.886108 -4.663037 -0.380394 0.652701 0.000000 0.000000 0.000000 -4.806240 11.139459 1.399163 -64.705387 6.917717 9.016929 -3.455370 -23.721400 -0.003953 2.091708 4.951744 0.094335 -0.067562 -0.044266 -0.000000 0.000000 0.000000 0.000000 0.000000 0.000000 0.000000 21.493641 2.805793 0.277568 70.380380 16.773781 6.317718 3.049295 25.894580 0.014338 3.572400 6.931827 0.219463 0.035108 -0.138841 0.000000 0.000000 0.000000 0.000000 0.000000 0.000000 0.000000 
-1.132626 17.071784 -0.756985 168.891347 83.117376 176.545548 -9.394239 2.096536 2.295682 -19.676706 5.133559 -26.568077 -3.126132 -0.525462 9.688421 0.990114 6.186421 -1.520564 0.960700 0.000001 -5.555500 11.319960 -3.296306 -1.065024 -1.444382 -11.998374 -6.366519 -0.667224 -3.011473 46.660763 -0.415692 6.745367 19.507070 3.270999 0.000000 -72.225500 -5.786436 0.287461 -2.350893 -2.374936 0.524799 -3.593473 -8.071910 0.395116 0.113447 11.105929 -1.890776 -4.912223 -4.670810 -0.380317 0.643653 0.000000 0.000000 0.000000 -4.822735 10.986617 1.402107 -64.615802 6.208452 9.570885 -3.432275 -24.238054 -0.003891 2.087422 4.817070 0.091559 -0.067841 -0.041038 -0.000000 0.000000 0.000000 0.000000 0.000000 0.000000 0.000000 21.470339 2.711198 0.305244 70.413771 16.177648 5.807946 3.069164 25.433081 0.014121 3.584811 6.815346 0.216347 0.035890 -0.135021 0.000000 0.000000 0.000000 0.000000 0.000000 0.000000 0.000000 
-1.003401 17.089035 -0.813038 168.157749 82.986472 175.763654 -9.400779 2.140576 2.187223 -19.926249 5.563390 -25.744933 -3.183982 -0.566409 9.333467 0.926811 5.765005 -1.781293 0.866200 -0.000000 -5.846900 11.413760 -3.166305 -1.071589 -1.638016 -11.868184 -7.850990 -0.845300 -3.116745 49.331239 -0.625422 5.253162 20.127651 2.754301 0.000000 -70.358101 -5.792132 0.237666 -2.231387 -2.371538 0.477578 -3.570908 -8.072203 0.348693 0.106964 11.042838 -1.901683 -4.933649 -4.679453 -0.380273 0.635747 0.000000 0.000000 0.000000 -4.842729 10.842343 1.407930 -64.507179 5.479060 10.156677 -3.406920 -24.803069 -0.003826 2.105073 4.679808 0.089685 -0.068281 -0.037599 -0.000000 0.000000 0.000000 0.000000 0.000000 0.000000 0.000000 21.453738 2.629421 0.332002 70.420661 15.589506 5.272865 3.088716 24.974902 0.013913 3.589218 6.728274 0.213730 0.036673 -0.131393 0.000000 0.000000 0.000000 0.000000 0.000000 0.000000 0.000000 
-0.876337 17.105742 -0.869045 167.607951 82.847155 175.158588 -9.419146 2.182955 2.066950 -20.156088 6.078860 -24.932988 -3.245938 -0.606760 8.942001 0.846229 5.240582 -1.969671 0.772800 0.000000 -6.182599 11.489067 -3.034597 -1.073717 -1.758682 -11.685525 -9.318028 -1.006658 -3.221541 51.879930 -0.834197 3.481123 20.302036 2.043400 -0.000000 -68.647000 -5.774067 0.179971 -2.104060 -2.362779 0.420911 -3.545997 -8.074953 0.292989 0.101170 10.987913 -1.909872 -4.950256 -4.689000 -0.380289 0.629119 0.000000 0.000000 0.000000 -4.864221 10.693123 1.415160 -64.379016 4.743080 10.755416 -3.379749 -25.415085 -0.003768 2.142652 4.545408 0.088613 -0.068895 -0.033998 -0.000000 0.000000 0.000000 0.000000 0.000000 0.000000 0.000000 21.448330 2.542565 0.357715 70.401240 15.019802 4.729279 3.108535 24.510336 0.013714 3.579822 6.674044 0.211314 0.037557 -0.127920 0.000000 0.000000 0.000000 0.000000 0.000000 0.000000 0.000000 
-0.751213 17.122061 -0.925039 167.257030 82.688226 174.745361 -9.446959 2.222426 1.942222 -20.354264 6.632274 -24.121995 -3.307677 -0.646812 8.519414 0.755075 4.648153 -2.099765 0.683200 0.000000 -6.524200 11.548280 -2.902396 -1.074916 -1.813578 -11.465124 -10.757012 -1.154014 -3.326918 54.283792 -1.040127 1.504239 20.036355 1.201400 0.000000 -67.058600 -5.732659 0.113418 -1.971211 -2.348656 0.353888 -3.519038 -8.079831 0.227115 0.096390 10.940548 -1.920172 -4.960307 -4.699046 -0.380363 0.624311 0.000000 0.000000 0.000000 -4.884459 10.530785 1.423428 -64.232157 4.003805 11.357605 -3.351435 -26.064584 -0.003728 2.197830 4.417573 0.088343 -0.069711 -0.030234 -0.000000 0.000000 0.000000 0.000000 0.000000 0.000000 0.000000 21.451756 2.443702 0.381487 70.358573 14.463655 4.169179 3.128771 24.042518 0.013528 3.559014 6.648901 0.209199 0.038535 -0.124561 0.000000 0.000000 0.000000 0.000000 0.000000 0.000000 0.000000 
-0.627675 17.138105 -0.981297 167.170916 82.498300 174.596812 -9.483243 2.256581 1.821780 -20.505128 7.175611 -23.313027 -3.364547 -0.687079 8.076883 0.660110 4.022992 -2.191612 0.598800 0.000000 -6.846400 11.591810 -2.772269 -1.075555 -1.799104 -11.215865 -12.167047 -1.288340 -3.432492 56.520971 -1.241260 -0.586978 19.360632 0.305400 0.000000 -65.517000 -5.659834 0.036958 -1.840855 -2.327369 0.274875 -3.490840 -8.086126 0.149506 0.095064 10.898106 -1.947282 -4.965355 -4.709024 -0.380472 0.621149 0.000000 0.000000 0.000000 -4.906516 10.347286 1.431080 -64.067624 3.268976 11.949441 -3.322129 -26.747908 -0.003715 2.265517 4.299369 0.088475 -0.070719 -0.026339 -0.000000 0.000000 0.000000 0.000000 0.000000 0.000000 0.000000 21.460579 2.315387 0.402711 70.292429 13.928936 3.612621 3.150261 23.565962 0.013356 3.520321 6.652996 0.206785 0.039732 -0.121263 0.000000 0.000000 0.000000 0.000000 0.000000 0.000000 0.000000 
